# Blender v2.78 (sub 0) OBJ File: ''
# www.blender.org
mtllib totem.mtl
o Cylinder
v 0.000000 2.257630 -12.069350
v 0.000000 22.257631 -12.069349
v 1.950900 22.257631 -11.877198
v 1.950900 2.257630 -11.877199
v 3.826830 22.257631 -11.308149
v 3.826830 2.257630 -11.308150
v 5.555700 22.257631 -10.384048
v 5.555700 2.257630 -10.384049
v 7.071070 22.257631 -9.140419
v 7.071070 2.257630 -9.140420
v 8.314700 22.257631 -7.625049
v 8.314700 2.257630 -7.625050
v 9.238800 22.257631 -5.896189
v 9.238800 2.257630 -5.896190
v 9.807850 22.257631 -4.020259
v 9.807850 2.257630 -4.020260
v 10.000000 22.257631 -2.069349
v 10.000000 2.257630 -2.069350
v 9.807850 22.257631 -0.118449
v 9.807850 2.257630 -0.118450
v 9.238800 22.257631 1.757481
v 9.238800 2.257630 1.757480
v 8.314700 22.257631 3.486351
v 8.314700 2.257630 3.486350
v 7.071070 22.257631 5.001721
v 7.071070 2.257630 5.001720
v 5.555700 22.257631 6.245341
v 5.555700 2.257630 6.245340
v 3.826830 22.257631 7.169441
v 3.826830 2.257630 7.169440
v 1.950900 22.257631 7.738501
v 1.950900 2.257630 7.738500
v 0.000000 22.257631 7.930651
v 0.000000 2.257630 7.930650
v -1.950910 22.257631 7.738501
v -1.950910 2.257630 7.738500
v -3.826840 22.257631 7.169441
v -3.826840 2.257630 7.169440
v -5.555710 22.257631 6.245341
v -5.555710 2.257630 6.245340
v -7.071070 22.257631 5.001711
v -7.071070 2.257630 5.001710
v -8.314700 22.257631 3.486341
v -8.314700 2.257630 3.486340
v -9.238800 22.257631 1.757471
v -9.238800 2.257630 1.757470
v -9.807850 22.257631 -0.118459
v -9.807850 2.257630 -0.118460
v -10.000000 22.257631 -2.069359
v -10.000000 2.257630 -2.069360
v -9.807850 22.257631 -4.020269
v -9.807850 2.257630 -4.020270
v -9.238791 22.257631 -5.896199
v -9.238791 2.257630 -5.896200
v -8.314690 22.257631 -7.625059
v -8.314690 2.257630 -7.625060
v -7.071060 22.257631 -9.140429
v -7.071060 2.257630 -9.140430
v -5.555690 22.257631 -10.384059
v -5.555690 2.257630 -10.384060
v -3.826820 22.257631 -11.308149
v -3.826820 2.257630 -11.308150
v -1.950890 22.257631 -11.877210
v -1.950890 2.257630 -11.877211
vn 0.0980 0.0000 -0.9952
vn 0.2903 0.0000 -0.9569
vn 0.4714 0.0000 -0.8819
vn 0.6344 0.0000 -0.7730
vn 0.7730 0.0000 -0.6344
vn 0.8819 0.0000 -0.4714
vn 0.9569 -0.0000 -0.2903
vn 0.9952 0.0000 -0.0980
vn 0.9952 -0.0000 0.0980
vn 0.9569 -0.0000 0.2903
vn 0.8819 -0.0000 0.4714
vn 0.7730 -0.0000 0.6344
vn 0.6344 -0.0000 0.7730
vn 0.4714 -0.0000 0.8819
vn 0.2903 -0.0000 0.9569
vn 0.0980 -0.0000 0.9952
vn -0.0980 -0.0000 0.9952
vn -0.2903 -0.0000 0.9569
vn -0.4714 -0.0000 0.8819
vn -0.6344 -0.0000 0.7730
vn -0.7730 -0.0000 0.6344
vn -0.8819 -0.0000 0.4714
vn -0.9569 0.0000 0.2903
vn -0.9952 0.0000 0.0980
vn -0.9952 0.0000 -0.0980
vn -0.9569 0.0000 -0.2903
vn -0.8819 0.0000 -0.4714
vn -0.7730 0.0000 -0.6344
vn -0.6344 0.0000 -0.7730
vn -0.4714 0.0000 -0.8819
vn 0.0000 1.0000 0.0000
vn -0.2903 0.0000 -0.9569
vn -0.0980 0.0000 -0.9952
vn 0.0000 -1.0000 -0.0000
usemtl None
s 1
f 1//1 2//1 3//1 4//1
f 4//2 3//2 5//2 6//2
f 6//3 5//3 7//3 8//3
f 8//4 7//4 9//4 10//4
f 10//5 9//5 11//5 12//5
f 12//6 11//6 13//6 14//6
f 14//7 13//7 15//7 16//7
f 16//8 15//8 17//8 18//8
f 18//9 17//9 19//9 20//9
f 20//10 19//10 21//10 22//10
f 22//11 21//11 23//11 24//11
f 24//12 23//12 25//12 26//12
f 26//13 25//13 27//13 28//13
f 28//14 27//14 29//14 30//14
f 30//15 29//15 31//15 32//15
f 32//16 31//16 33//16 34//16
f 34//17 33//17 35//17 36//17
f 36//18 35//18 37//18 38//18
f 38//19 37//19 39//19 40//19
f 40//20 39//20 41//20 42//20
f 42//21 41//21 43//21 44//21
f 44//22 43//22 45//22 46//22
f 46//23 45//23 47//23 48//23
f 48//24 47//24 49//24 50//24
f 50//25 49//25 51//25 52//25
f 52//26 51//26 53//26 54//26
f 54//27 53//27 55//27 56//27
f 56//28 55//28 57//28 58//28
f 58//29 57//29 59//29 60//29
f 60//30 59//30 61//30 62//30
f 3//31 2//31 63//31 61//31 59//31 57//31 55//31 53//31 51//31 49//31 47//31 45//31 43//31 41//31 39//31 37//31 35//31 33//31 31//31 29//31 27//31 25//31 23//31 21//31 19//31 17//31 15//31 13//31 11//31 9//31 7//31 5//31
f 62//32 61//32 63//32 64//32
f 64//33 63//33 2//33 1//33
f 1//34 4//34 6//34 8//34 10//34 12//34 14//34 16//34 18//34 20//34 22//34 24//34 26//34 28//34 30//34 32//34 34//34 36//34 38//34 40//34 42//34 44//34 46//34 48//34 50//34 52//34 54//34 56//34 58//34 60//34 62//34 64//34
o Cylinder.001
v 0.000000 22.091400 -10.194690
v 0.000000 38.342072 -10.194689
v 1.585170 38.342072 -10.038557
v 1.585170 22.091400 -10.038558
v 3.109430 38.342072 -9.576178
v 3.109430 22.091400 -9.576179
v 4.514200 38.342072 -8.825318
v 4.514200 22.091400 -8.825319
v 5.745480 38.342072 -7.814828
v 5.745480 22.091400 -7.814829
v 6.755970 38.342072 -6.583548
v 6.755970 22.091400 -6.583549
v 7.506830 38.342072 -5.178778
v 7.506830 22.091400 -5.178779
v 7.969210 38.342072 -3.654528
v 7.969210 22.091400 -3.654529
v 8.125340 38.342072 -2.069348
v 8.125340 22.091400 -2.069349
v 7.969210 38.342072 -0.484178
v 7.969210 22.091400 -0.484179
v 7.506830 38.342072 1.040082
v 7.506830 22.091400 1.040081
v 6.755970 38.342072 2.444842
v 6.755970 22.091400 2.444841
v 5.745480 38.342072 3.676131
v 5.745480 22.091400 3.676131
v 4.514200 38.342072 4.686622
v 4.514200 22.091400 4.686621
v 3.109430 38.342072 5.437482
v 3.109430 22.091400 5.437481
v 1.585170 38.342072 5.899862
v 1.585170 22.091400 5.899861
v 0.000000 38.342072 6.055992
v 0.000000 22.091400 6.055991
v -1.585180 38.342072 5.899862
v -1.585180 22.091400 5.899861
v -3.109440 38.342072 5.437482
v -3.109440 22.091400 5.437481
v -4.514200 38.342072 4.686622
v -4.514200 22.091400 4.686621
v -5.745490 38.342072 3.676131
v -5.745490 22.091400 3.676131
v -6.755970 38.342072 2.444842
v -6.755970 22.091400 2.444841
v -7.506840 38.342072 1.040072
v -7.506840 22.091400 1.040071
v -7.969210 38.342072 -0.484178
v -7.969210 22.091400 -0.484179
v -8.125340 38.342072 -2.069358
v -8.125340 22.091400 -2.069359
v -7.969210 38.342072 -3.654538
v -7.969210 22.091400 -3.654539
v -7.506830 38.342072 -5.178788
v -7.506830 22.091400 -5.178789
v -6.755970 38.342072 -6.583558
v -6.755970 22.091400 -6.583559
v -5.745470 38.342072 -7.814838
v -5.745470 22.091400 -7.814839
v -4.514190 38.342072 -8.825328
v -4.514190 22.091400 -8.825329
v -3.109420 38.342072 -9.576188
v -3.109420 22.091400 -9.576189
v -1.585160 38.342072 -10.038568
v -1.585160 22.091400 -10.038569
vn 0.0980 0.0000 -0.9952
vn 0.2903 0.0000 -0.9569
vn 0.4714 0.0000 -0.8819
vn 0.6344 0.0000 -0.7730
vn 0.7730 0.0000 -0.6344
vn 0.8819 0.0000 -0.4714
vn 0.9569 -0.0000 -0.2903
vn 0.9952 0.0000 -0.0980
vn 0.9952 -0.0000 0.0980
vn 0.9569 -0.0000 0.2903
vn 0.8819 -0.0000 0.4714
vn 0.7730 -0.0000 0.6344
vn 0.6344 -0.0000 0.7730
vn 0.4714 -0.0000 0.8819
vn 0.2903 -0.0000 0.9569
vn 0.0980 -0.0000 0.9952
vn -0.0980 -0.0000 0.9952
vn -0.2903 -0.0000 0.9569
vn -0.4714 -0.0000 0.8819
vn -0.6344 -0.0000 0.7730
vn -0.7730 -0.0000 0.6344
vn -0.8819 -0.0000 0.4714
vn -0.9569 0.0000 0.2903
vn -0.9952 -0.0000 0.0980
vn -0.9952 0.0000 -0.0980
vn -0.9569 0.0000 -0.2903
vn -0.8819 0.0000 -0.4714
vn -0.7730 0.0000 -0.6344
vn -0.6344 0.0000 -0.7730
vn -0.4714 0.0000 -0.8819
vn 0.0000 1.0000 0.0000
vn -0.2903 0.0000 -0.9569
vn -0.0980 0.0000 -0.9952
vn 0.0000 -1.0000 0.0000
usemtl None
s 1
f 65//35 66//35 67//35 68//35
f 68//36 67//36 69//36 70//36
f 70//37 69//37 71//37 72//37
f 72//38 71//38 73//38 74//38
f 74//39 73//39 75//39 76//39
f 76//40 75//40 77//40 78//40
f 78//41 77//41 79//41 80//41
f 80//42 79//42 81//42 82//42
f 82//43 81//43 83//43 84//43
f 84//44 83//44 85//44 86//44
f 86//45 85//45 87//45 88//45
f 88//46 87//46 89//46 90//46
f 90//47 89//47 91//47 92//47
f 92//48 91//48 93//48 94//48
f 94//49 93//49 95//49 96//49
f 96//50 95//50 97//50 98//50
f 98//51 97//51 99//51 100//51
f 100//52 99//52 101//52 102//52
f 102//53 101//53 103//53 104//53
f 104//54 103//54 105//54 106//54
f 106//55 105//55 107//55 108//55
f 108//56 107//56 109//56 110//56
f 110//57 109//57 111//57 112//57
f 112//58 111//58 113//58 114//58
f 114//59 113//59 115//59 116//59
f 116//60 115//60 117//60 118//60
f 118//61 117//61 119//61 120//61
f 120//62 119//62 121//62 122//62
f 122//63 121//63 123//63 124//63
f 124//64 123//64 125//64 126//64
f 67//65 66//65 127//65 125//65 123//65 121//65 119//65 117//65 115//65 113//65 111//65 109//65 107//65 105//65 103//65 101//65 99//65 97//65 95//65 93//65 91//65 89//65 87//65 85//65 83//65 81//65 79//65 77//65 75//65 73//65 71//65 69//65
f 126//66 125//66 127//66 128//66
f 128//67 127//67 66//67 65//67
f 65//68 68//68 70//68 72//68 74//68 76//68 78//68 80//68 82//68 84//68 86//68 88//68 90//68 92//68 94//68 96//68 98//68 100//68 102//68 104//68 106//68 108//68 110//68 112//68 114//68 116//68 118//68 120//68 122//68 124//68 126//68 128//68
o Cylinder.002
v 0.000000 36.965511 -8.268038
v 0.000000 49.362869 -8.268038
v 1.209300 49.362869 -8.148928
v 1.209300 36.965511 -8.148928
v 2.372130 49.362869 -7.796187
v 2.372130 36.965511 -7.796188
v 3.443800 49.362869 -7.223368
v 3.443800 36.965511 -7.223369
v 4.383130 49.362869 -6.452477
v 4.383130 36.965511 -6.452478
v 5.154020 49.362869 -5.513158
v 5.154020 36.965511 -5.513159
v 5.726840 49.362869 -4.441487
v 5.726840 36.965511 -4.441488
v 6.079580 49.362869 -3.278658
v 6.079580 36.965511 -3.278658
v 6.198680 49.362869 -2.069348
v 6.198680 36.965511 -2.069348
v 6.079580 49.362869 -0.860048
v 6.079580 36.965511 -0.860048
v 5.726840 49.362869 0.302782
v 5.726840 36.965511 0.302782
v 5.154020 49.362869 1.374452
v 5.154020 36.965511 1.374452
v 4.383130 49.362869 2.313782
v 4.383130 36.965511 2.313782
v 3.443800 49.362869 3.084672
v 3.443800 36.965511 3.084672
v 2.372130 49.362869 3.657492
v 2.372130 36.965511 3.657492
v 1.209300 49.362869 4.010232
v 1.209300 36.965511 4.010231
v 0.000000 49.362869 4.129332
v 0.000000 36.965511 4.129331
v -1.209310 49.362869 4.010232
v -1.209310 36.965511 4.010231
v -2.372140 49.362869 3.657482
v -2.372140 36.965511 3.657481
v -3.443810 49.362869 3.084662
v -3.443810 36.965511 3.084661
v -4.383130 49.362869 2.313782
v -4.383130 36.965511 2.313782
v -5.154020 49.362869 1.374452
v -5.154020 36.965511 1.374452
v -5.726840 49.362869 0.302782
v -5.726840 36.965511 0.302782
v -6.079580 49.362869 -0.860048
v -6.079580 36.965511 -0.860048
v -6.198680 49.362869 -2.069358
v -6.198680 36.965511 -2.069358
v -6.079580 49.362869 -3.278658
v -6.079580 36.965511 -3.278658
v -5.726840 49.362869 -4.441487
v -5.726840 36.965511 -4.441488
v -5.154010 49.362869 -5.513158
v -5.154010 36.965511 -5.513159
v -4.383130 49.362869 -6.452487
v -4.383130 36.965511 -6.452488
v -3.443800 49.362869 -7.223368
v -3.443800 36.965511 -7.223369
v -2.372130 49.362869 -7.796187
v -2.372130 36.965511 -7.796188
v -1.209290 49.362869 -8.148928
v -1.209290 36.965511 -8.148928
vn 0.0980 0.0000 -0.9952
vn 0.2903 0.0000 -0.9569
vn 0.4714 0.0000 -0.8819
vn 0.6344 0.0000 -0.7730
vn 0.7730 0.0000 -0.6344
vn 0.8819 0.0000 -0.4714
vn 0.9569 0.0000 -0.2903
vn 0.9952 0.0000 -0.0980
vn 0.9952 -0.0000 0.0980
vn 0.9569 -0.0000 0.2903
vn 0.8819 0.0000 0.4714
vn 0.7730 -0.0000 0.6344
vn 0.6344 -0.0000 0.7730
vn 0.4714 -0.0000 0.8819
vn 0.2903 -0.0000 0.9569
vn 0.0980 -0.0000 0.9952
vn -0.0980 -0.0000 0.9952
vn -0.2903 -0.0000 0.9569
vn -0.4714 -0.0000 0.8819
vn -0.6344 -0.0000 0.7730
vn -0.7730 -0.0000 0.6344
vn -0.8819 -0.0000 0.4714
vn -0.9569 -0.0000 0.2903
vn -0.9952 -0.0000 0.0980
vn -0.9952 -0.0000 -0.0980
vn -0.9569 0.0000 -0.2903
vn -0.8819 0.0000 -0.4714
vn -0.7730 0.0000 -0.6344
vn -0.6344 0.0000 -0.7730
vn -0.4714 0.0000 -0.8819
vn 0.0000 1.0000 0.0000
vn -0.2903 0.0000 -0.9569
vn -0.0980 0.0000 -0.9952
vn 0.0000 -1.0000 0.0000
usemtl None
s 1
f 129//69 130//69 131//69 132//69
f 132//70 131//70 133//70 134//70
f 134//71 133//71 135//71 136//71
f 136//72 135//72 137//72 138//72
f 138//73 137//73 139//73 140//73
f 140//74 139//74 141//74 142//74
f 142//75 141//75 143//75 144//75
f 144//76 143//76 145//76 146//76
f 146//77 145//77 147//77 148//77
f 148//78 147//78 149//78 150//78
f 150//79 149//79 151//79 152//79
f 152//80 151//80 153//80 154//80
f 154//81 153//81 155//81 156//81
f 156//82 155//82 157//82 158//82
f 158//83 157//83 159//83 160//83
f 160//84 159//84 161//84 162//84
f 162//85 161//85 163//85 164//85
f 164//86 163//86 165//86 166//86
f 166//87 165//87 167//87 168//87
f 168//88 167//88 169//88 170//88
f 170//89 169//89 171//89 172//89
f 172//90 171//90 173//90 174//90
f 174//91 173//91 175//91 176//91
f 176//92 175//92 177//92 178//92
f 178//93 177//93 179//93 180//93
f 180//94 179//94 181//94 182//94
f 182//95 181//95 183//95 184//95
f 184//96 183//96 185//96 186//96
f 186//97 185//97 187//97 188//97
f 188//98 187//98 189//98 190//98
f 131//99 130//99 191//99 189//99 187//99 185//99 183//99 181//99 179//99 177//99 175//99 173//99 171//99 169//99 167//99 165//99 163//99 161//99 159//99 157//99 155//99 153//99 151//99 149//99 147//99 145//99 143//99 141//99 139//99 137//99 135//99 133//99
f 190//100 189//100 191//100 192//100
f 192//101 191//101 130//101 129//101
f 129//102 132//102 134//102 136//102 138//102 140//102 142//102 144//102 146//102 148//102 150//102 152//102 154//102 156//102 158//102 160//102 162//102 164//102 166//102 168//102 170//102 172//102 174//102 176//102 178//102 180//102 182//102 184//102 186//102 188//102 190//102 192//102
o Icosphere
v 0.000000 45.463200 -2.314038
v 4.253230 46.956657 0.776082
v -1.624560 46.956650 2.685922
v 7.236070 50.991013 2.943222
v 8.506480 50.205841 -2.314038
v -5.257300 46.956680 -2.314038
v -1.624560 46.956650 -7.313988
v 4.253230 46.956657 -5.404148
v 9.510580 55.463200 0.776092
v -2.763880 50.991001 6.192462
v 2.628690 50.205822 5.776083
v 0.000000 55.463200 7.685962
v -8.944260 50.991039 -2.314038
v -6.881890 50.205841 2.685932
v -9.510580 55.463200 0.776092
v -2.763880 50.991001 -10.820528
v -6.881890 50.205841 -7.313998
v -5.877860 55.463200 -10.404198
v 7.236070 50.991013 -7.571288
v 2.628690 50.205822 -10.404148
v 5.877860 55.463200 -10.404198
v 5.877860 55.463200 5.776132
v -5.877860 55.463200 5.776132
v -9.510580 55.463200 -5.404158
v 0.000000 55.463200 -12.314027
v 9.510580 55.463200 -5.404158
v 2.763880 59.935398 6.192462
v 6.881890 60.720558 2.685933
v 1.624560 63.969749 2.685923
v -7.236070 59.935387 2.943223
v -2.628690 60.720581 5.776083
v -4.253230 63.969742 0.776083
v -7.236070 59.935387 -7.571288
v -8.506480 60.720558 -2.314038
v -4.253230 63.969742 -5.404147
v 2.763880 59.935398 -10.820527
v -2.628690 60.720581 -10.404147
v 1.624560 63.969749 -7.313987
v 8.944260 59.935360 -2.314038
v 6.881890 60.720558 -7.313997
v 5.257300 63.969723 -2.314037
v 0.000000 65.463196 -2.314037
vn 0.1024 -0.9435 0.3151
vn 0.7002 -0.6617 0.2680
vn -0.2680 -0.9435 0.1947
vn -0.2680 -0.9435 -0.1947
vn 0.1024 -0.9435 -0.3151
vn 0.9050 -0.3304 0.2680
vn 0.0247 -0.3304 0.9435
vn -0.8897 -0.3304 0.3151
vn -0.5746 -0.3304 -0.7488
vn 0.5346 -0.3304 -0.7779
vn 0.8026 -0.1256 0.5831
vn -0.3066 -0.1256 0.9435
vn -0.9921 -0.1256 0.0000
vn -0.3066 -0.1256 -0.9435
vn 0.8026 -0.1256 -0.5831
vn 0.4089 0.6617 0.6284
vn -0.4713 0.6617 0.5831
vn -0.7002 0.6617 -0.2680
vn 0.0385 0.6617 -0.7488
vn 0.7240 0.6617 -0.1947
vn 0.2680 0.9435 -0.1947
vn 0.4911 0.7947 -0.3568
vn 0.4089 0.6617 -0.6284
vn -0.1024 0.9435 -0.3151
vn -0.1876 0.7947 -0.5773
vn -0.4713 0.6617 -0.5831
vn -0.3313 0.9435 0.0000
vn -0.6071 0.7947 0.0000
vn -0.7002 0.6617 0.2680
vn -0.1024 0.9435 0.3151
vn -0.1876 0.7947 0.5773
vn 0.0385 0.6617 0.7488
vn 0.2680 0.9435 0.1947
vn 0.4911 0.7947 0.3568
vn 0.7240 0.6617 0.1947
vn 0.8897 0.3304 -0.3151
vn 0.7947 0.1876 -0.5773
vn 0.5746 0.3304 -0.7488
vn -0.0247 0.3304 -0.9435
vn -0.3035 0.1876 -0.9342
vn -0.5346 0.3304 -0.7779
vn -0.9050 0.3304 -0.2680
vn -0.9822 0.1876 0.0000
vn -0.9050 0.3304 0.2680
vn -0.5346 0.3304 0.7779
vn -0.3035 0.1876 0.9342
vn -0.0247 0.3304 0.9435
vn 0.5746 0.3304 0.7488
vn 0.7947 0.1876 0.5773
vn 0.8897 0.3304 0.3151
vn 0.3066 0.1256 -0.9435
vn 0.3035 -0.1876 -0.9342
vn 0.0247 -0.3304 -0.9435
vn -0.8026 0.1256 -0.5831
vn -0.7947 -0.1876 -0.5773
vn -0.8897 -0.3304 -0.3151
vn -0.8026 0.1256 0.5831
vn -0.7947 -0.1876 0.5773
vn -0.5746 -0.3304 0.7488
vn 0.3066 0.1256 0.9435
vn 0.3035 -0.1876 0.9342
vn 0.5346 -0.3304 0.7779
vn 0.9921 0.1256 0.0000
vn 0.9822 -0.1876 0.0000
vn 0.9050 -0.3304 -0.2680
vn 0.4713 -0.6617 -0.5831
vn 0.1876 -0.7947 -0.5773
vn -0.0385 -0.6617 -0.7488
vn -0.4089 -0.6617 -0.6284
vn -0.4911 -0.7947 -0.3568
vn -0.7240 -0.6617 -0.1947
vn -0.7240 -0.6617 0.1947
vn -0.4911 -0.7947 0.3568
vn -0.4089 -0.6617 0.6284
vn 0.7002 -0.6617 -0.2680
vn 0.6071 -0.7947 0.0000
vn 0.3313 -0.9435 0.0000
vn -0.0385 -0.6617 0.7488
vn 0.1876 -0.7947 0.5773
vn 0.4713 -0.6617 0.5831
usemtl None
s 1
f 193//103 194//103 195//103
f 196//104 194//104 197//104
f 193//105 195//105 198//105
f 193//106 198//106 199//106
f 193//107 199//107 200//107
f 196//108 197//108 201//108
f 202//109 203//109 204//109
f 205//110 206//110 207//110
f 208//111 209//111 210//111
f 211//112 212//112 213//112
f 196//113 201//113 214//113
f 202//114 204//114 215//114
f 205//115 207//115 216//115
f 208//116 210//116 217//116
f 211//117 213//117 218//117
f 219//118 220//118 221//118
f 222//119 223//119 224//119
f 225//120 226//120 227//120
f 228//121 229//121 230//121
f 231//122 232//122 233//122
f 233//123 230//123 234//123
f 233//124 232//124 230//124
f 232//125 228//125 230//125
f 230//126 227//126 234//126
f 230//127 229//127 227//127
f 229//128 225//128 227//128
f 227//129 224//129 234//129
f 227//130 226//130 224//130
f 226//131 222//131 224//131
f 224//132 221//132 234//132
f 224//133 223//133 221//133
f 223//134 219//134 221//134
f 221//135 233//135 234//135
f 221//136 220//136 233//136
f 220//137 231//137 233//137
f 218//138 232//138 231//138
f 218//139 213//139 232//139
f 213//140 228//140 232//140
f 217//141 229//141 228//141
f 217//142 210//142 229//142
f 210//143 225//143 229//143
f 216//144 226//144 225//144
f 216//145 207//145 226//145
f 207//146 222//146 226//146
f 215//147 223//147 222//147
f 215//148 204//148 223//148
f 204//149 219//149 223//149
f 214//150 220//150 219//150
f 214//151 201//151 220//151
f 201//152 231//152 220//152
f 213//153 217//153 228//153
f 213//154 212//154 217//154
f 212//155 208//155 217//155
f 210//156 216//156 225//156
f 210//157 209//157 216//157
f 209//158 205//158 216//158
f 207//159 215//159 222//159
f 207//160 206//160 215//160
f 206//161 202//161 215//161
f 204//162 214//162 219//162
f 204//163 203//163 214//163
f 203//164 196//164 214//164
f 201//165 218//165 231//165
f 201//166 197//166 218//166
f 197//167 211//167 218//167
f 200//168 212//168 211//168
f 200//169 199//169 212//169
f 199//170 208//170 212//170
f 199//171 209//171 208//171
f 199//172 198//172 209//172
f 198//173 205//173 209//173
f 198//174 206//174 205//174
f 198//175 195//175 206//175
f 195//176 202//176 206//176
f 197//177 200//177 211//177
f 197//178 194//178 200//178
f 194//179 193//179 200//179
f 195//180 203//180 202//180
f 195//181 194//181 203//181
f 194//182 196//182 203//182
